# xmcd CD database file
#
# Track frame offsets:
#	150
#	19055
#	38675
#	150412
#	168245
#	187030
#	206240
#	229830
#	278617
#
# Disc length: 4483 seconds
#
# Revision: 8
# Processed by: cddbd v1.5.2PL0 Copyright (c) Steve Scherf et al.
# Submitted via: CDex 2.21
#
DISCID=6e118109
DTITLE=Fleetwood Mac - Live at the Boston Tea Party
DYEAR=1970
DGENRE=Blues Rock
TTITLE0=World In Harmony
TTITLE1=Oh Well
TTITLE2=Rattlesnake Shake
TTITLE3=Stranger Blues
TTITLE4=Red Hot Mama
TTITLE5=Teenage Darling
TTITLE6=Keep A-Knocking
TTITLE7=Jenny Jenny
TTITLE8=Encore Jam
EXTD=YEAR: 1970
EXTT0=
EXTT1=
EXTT2=
EXTT3=
EXTT4=
EXTT5=
EXTT6=
EXTT7=
EXTT8=
PLAYORDER=
